<svg width="60" height="60" viewBox="0 0 60 60" fill="none" xmlns="http://www.w3.org/2000/svg">
    <circle cx="30" cy="30" r="30" fill="white"/>
    <circle cx="30" cy="30" r="29" stroke="#0071F0" stroke-width="2"/>
    <path d="M49.424 30.446C49.4222 29.1882 49.3172 27.9327 49.11 26.692H30.422V34.153H41.122C40.647 36.5793 39.2169 38.7128 37.153 40.074V45.033H43.537C47.276 41.576 49.424 36.483 49.424 30.446Z" fill="#4285F4"/>
    <path d="M30.422 49.846C35.2476 49.9753 39.9397 48.2532 43.536 45.033L37.153 40.072C35.1505 41.3675 32.8067 42.0354 30.422 41.99C25.337 41.9275 20.8586 38.628 19.292 33.79H12.71V38.9C16.067 45.6064 22.9224 49.843 30.422 49.846Z" fill="#34A853"/>
    <path d="M19.292 33.787C18.8723 32.5687 18.66 31.2886 18.664 30C18.6682 28.7121 18.8802 27.4333 19.292 26.213V21.103H12.71C11.3072 23.86 10.5763 26.9097 10.577 30.003C10.5763 33.0964 11.3072 36.146 12.71 38.903L19.292 33.787Z" fill="#FBBC05"/>
    <path d="M30.422 18.01C33.2503 17.9646 35.9829 19.034 38.029 20.987L43.685 15.331C40.1036 11.9492 35.3474 10.0927 30.422 10.154C22.9216 10.157 16.0656 14.3945 12.709 21.102L19.291 26.212C20.8571 21.3728 25.3361 18.0723 30.422 18.01Z" fill="#EA4335"/>
</svg>
